<svg width="20" height="18" viewBox="0 0 20 18" fill="none" xmlns="http://www.w3.org/2000/svg">
<path fill-rule="evenodd" clip-rule="evenodd" d="M17.6778 0.706956C17.2872 0.316431 16.6541 0.316432 16.2635 0.706956L13.7845 3.18605C12.6549 2.74182 11.3948 2.49985 10.0001 2.49985C5.2807 2.49985 2.10257 5.27058 0.305945 9.27318C0.0985387 9.73525 0.0985396 10.2644 0.305945 10.7265C0.919421 12.0932 1.69397 13.3163 2.63596 14.3345L0.707195 16.2633C0.31667 16.6538 0.316671 17.287 0.707195 17.6775C1.09772 18.068 1.73088 18.068 2.12141 17.6775L17.6778 2.12117C18.0683 1.73064 18.0683 1.09748 17.6778 0.706956ZM4.04975 12.9207L6.09613 10.8744C6.03327 10.5929 6.00011 10.3002 6.00011 9.99984C6.00011 7.79184 7.79211 5.99985 10.0001 5.99985C10.3005 5.99985 10.5931 6.03301 10.8746 6.09586L12.1988 4.77167C11.5164 4.59277 10.7839 4.49985 10.0001 4.49985C6.29348 4.49984 3.73703 6.5777 2.17239 9.99984C2.68841 11.1285 3.3123 12.1109 4.04975 12.9207Z" fill="#A4A4A4"/>
<path d="M14.0001 9.99984C14.0001 9.58483 13.9368 9.18451 13.8193 8.80803L11.8378 10.7896C11.6356 11.2587 11.2589 11.6353 10.7898 11.8375L8.80829 13.8191C9.18477 13.9365 9.58509 13.9998 10.0001 13.9998C12.2081 13.9998 14.0001 12.2078 14.0001 9.99984Z" fill="#A4A4A4"/>
<path d="M10.0001 15.4998C9.09508 15.4998 8.25863 15.376 7.48844 15.1389L5.9311 16.6962C7.13254 17.2151 8.48712 17.4998 10.0001 17.4998C14.7195 17.4998 17.8976 14.7291 19.6943 10.7265C19.9017 10.2644 19.9017 9.73525 19.6943 9.27318C19.0388 7.81288 18.1994 6.51655 17.1684 5.45892L15.7556 6.87172C16.5787 7.71917 17.267 8.77314 17.8278 9.99984C16.2632 13.422 13.7067 15.4998 10.0001 15.4998Z" fill="#A4A4A4"/>
</svg>
